<?xml version="1.0" encoding="utf-8"?>
<!-- Generator: Adobe Illustrator 28.1.0, SVG Export Plug-In . SVG Version: 6.00 Build 0)  -->
<svg version="1.1" id="Camada_1" xmlns="http://www.w3.org/2000/svg" xmlns:xlink="http://www.w3.org/1999/xlink" x="0px" y="0px"
	 viewBox="0 0 50 50" style="enable-background:new 0 0 50 50;" xml:space="preserve">
<style type="text/css">
	.st0{fill:url(#SVGID_1_);}
	.st1{fill:url(#SVGID_00000073710937902981462270000005988959159569669042_);}
</style>
<g>
	<g>
		<linearGradient id="SVGID_1_" gradientUnits="userSpaceOnUse" x1="18.2701" y1="33.8448" x2="31.5597" y2="16.3786">
			<stop  offset="5.586592e-03" style="stop-color:#0A3DCA"/>
			<stop  offset="1" style="stop-color:#0D6EFD"/>
		</linearGradient>
		<path class="st0" d="M28.89,14.31c-1.21-0.44-2.52-0.68-3.89-0.68c-1.36,0-2.67,0.24-3.89,0.68l0,6.81c0,0,0,0,0,0l-6.81,0
			c-0.44,1.21-0.68,2.52-0.68,3.89s0.24,2.67,0.68,3.89l6.81,0c0,0,0,0,0,0l0,6.81c1.21,0.44,2.52,0.68,3.89,0.68
			c1.36,0,2.67-0.24,3.89-0.68l0-6.81c0,0,0,0,0,0l6.81,0c0.44-1.21,0.68-2.52,0.68-3.89s-0.24-2.67-0.68-3.89l-6.81,0c0,0,0,0,0,0
			L28.89,14.31z"/>
		
			<linearGradient id="SVGID_00000085938072242199238650000006568767431743405721_" gradientUnits="userSpaceOnUse" x1="42.0709" y1="6.0821" x2="3.4678" y2="48.8619">
			<stop  offset="0" style="stop-color:#6EDFF6"/>
			<stop  offset="1" style="stop-color:#0DCAF0"/>
		</linearGradient>
		<path style="fill:url(#SVGID_00000085938072242199238650000006568767431743405721_);" d="M21.11,8.14l0-7.44c0,0,0,0,0,0h7.77
			c0,0,0,0,0,0v7.44c0,0,0,0,0,0C27.64,7.85,26.34,7.7,25,7.7C23.66,7.7,22.36,7.85,21.11,8.14C21.11,8.14,21.11,8.14,21.11,8.14z
			 M25,42.3c-1.34,0-2.64-0.16-3.89-0.44c0,0,0,0,0,0l0,7.44c0,0,0,0,0,0h7.77c0,0,0,0,0,0v-7.44c0,0,0,0,0,0
			C27.64,42.15,26.34,42.3,25,42.3z M8.14,28.89l-7.44,0c0,0,0,0,0,0v-7.77c0,0,0,0,0,0l7.44,0c0,0,0,0,0,0
			C7.85,22.36,7.7,23.66,7.7,25S7.85,27.64,8.14,28.89C8.14,28.89,8.14,28.89,8.14,28.89z M41.86,21.11
			C41.86,21.11,41.86,21.11,41.86,21.11c0.29,1.25,0.44,2.55,0.44,3.89s-0.16,2.64-0.44,3.89c0,0,0,0,0,0l7.44,0c0,0,0,0,0,0v-7.77
			c0,0,0,0,0,0L41.86,21.11z M15.31,40.19c-1.33,1.33-4.74,4.74-4.74,4.74c0,0,0,0,0,0l-5.5-5.5c0,0,0,0,0,0l5.26-5.26c0,0,0,0,0,0
			c1.26,2.01,2.93,3.75,4.88,5.09C15.52,39.48,15.58,39.92,15.31,40.19z M39.67,15.83l5.26-5.26c0,0,0,0,0,0l-5.5-5.5c0,0,0,0,0,0
			l-5.26,5.26c0,0,0,0,0,0C36.39,11.72,38.28,13.61,39.67,15.83C39.67,15.83,39.67,15.83,39.67,15.83z M10.33,15.83l-5.26-5.26
			c0,0,0,0,0,0l5.5-5.5c0,0,0,0,0,0l5.26,5.26c0,0,0,0,0,0C13.61,11.72,11.72,13.61,10.33,15.83
			C10.33,15.83,10.33,15.83,10.33,15.83z M39.67,34.17c-1.39,2.22-3.27,4.1-5.5,5.5c0,0,3.59,3.59,4.84,4.84
			c0.24,0.24,0.61,0.23,0.85,0l5.07-5.07c0,0,0,0,0,0L39.67,34.17C39.67,34.17,39.67,34.17,39.67,34.17z"/>
	</g>
</g>
</svg>
